<?xml version="1.0" encoding="iso-8859-1"?>
<!-- Generator: Adobe Illustrator 19.0.0, SVG Export Plug-In . SVG Version: 6.00 Build 0)  -->
<svg version="1.1" id="Layer_1" xmlns="http://www.w3.org/2000/svg" xmlns:xlink="http://www.w3.org/1999/xlink" x="0px" y="0px"
	 viewBox="0 0 512 512" style="enable-background:new 0 0 512 512;" xml:space="preserve">
<g>
	<g>
		<g>
			<path d="M394.667,213.333c-64.698,0-117.333,52.635-117.333,117.333S329.969,448,394.667,448
				c20.625,0,40.906-5.427,58.677-15.708c5.094-2.948,6.844-9.469,3.885-14.573c-2.948-5.104-9.479-6.865-14.573-3.885
				c-14.521,8.396-31.115,12.833-47.99,12.833c-52.938,0-96-43.063-96-96s43.063-96,96-96s96,43.063,96,96v10.667
				c0,11.76-9.573,21.333-21.333,21.333c-11.76,0-21.333-9.573-21.333-21.333v-42.667c0-5.896-4.771-10.667-10.667-10.667
				c-2.869,0-5.447,1.161-7.362,3c-9.428-8.401-21.714-13.667-35.305-13.667c-29.406,0-53.333,23.927-53.333,53.333
				S365.26,384,394.667,384c15.896,0,30.03-7.131,39.81-18.202c7.727,10.977,20.44,18.202,34.857,18.202
				C492.865,384,512,364.865,512,341.333v-10.667C512,265.969,459.365,213.333,394.667,213.333z M394.667,362.667
				c-17.646,0-32-14.354-32-32c0-17.646,14.354-32,32-32s32,14.354,32,32C426.667,348.313,412.313,362.667,394.667,362.667z"/>
			<path d="M17.698,88.688l175.719,142.958c0.583,0.479,1.219,0.896,1.885,1.229c2.344,1.198,4.823,1.802,7.385,1.802
				c2.708,0,5.417-0.708,9.375-3.104L387.646,88.698c2.604-2.115,4.052-5.323,3.927-8.667s-1.813-6.438-4.563-8.354
				C379.813,66.656,371.385,64,362.667,64h-320c-8.719,0-17.135,2.646-24.333,7.667c-2.75,1.906-4.438,5-4.563,8.354
				C13.646,83.365,15.094,86.573,17.698,88.688z"/>
			<path d="M256,330.667C256,254.208,318.208,192,394.667,192c5.896,0,10.667-4.771,10.667-10.667V124.24
				c0-4.115-2.365-7.865-6.083-9.635c-3.719-1.729-8.115-1.219-11.313,1.365L224.281,249.146l-1.875,1.24
				c-12.302,7.552-27.417,7.938-41.302-1.229L17.396,115.958c-3.177-2.594-7.573-3.115-11.313-1.365
				C2.365,116.365,0,120.115,0,124.229V320c0,23.531,19.135,42.667,42.667,42.667h204.365c3.094,0,6.031-1.344,8.063-3.677
				c2.021-2.333,2.938-5.438,2.5-8.5C256.51,342.906,256,336.604,256,330.667z"/>
		</g>
	</g>
</g>
<g>
</g>
<g>
</g>
<g>
</g>
<g>
</g>
<g>
</g>
<g>
</g>
<g>
</g>
<g>
</g>
<g>
</g>
<g>
</g>
<g>
</g>
<g>
</g>
<g>
</g>
<g>
</g>
<g>
</g>
</svg>
